<svg xmlns="http://www.w3.org/2000/svg" width="27.077" height="16.309" viewBox="0 0 27.077 16.309">
  <g id="cutting_board" data-name="cutting board" transform="translate(-1378.794 486.93) rotate(-90)">
    <g id="cutting_board-2" data-name="cutting board" transform="translate(470.621 1378.794)">
      <path id="Path_33" data-name="Path 33" d="M477.924,1381.2a.9.9,0,0,0-.37,1.393c.319.386.638.638,1.158.42a1,1,0,0,0,.454-1.359C478.965,1381.054,478.293,1381.085,477.924,1381.2Zm.42,1.377c-.487-.118-.537-.621,0-.839.3-.12.436.067.453.353S478.83,1382.7,478.344,1382.581Zm-5.808,4.868c-.353.05-.131,1.579-.185,2.148-.034.353-.067.772.185.84s.184,0,.218-.235.134-1.712.168-2,.386-.185.722-.185.168-.067.168-.419S472.888,1387.4,472.536,1387.449Zm12.606,11.129c-.252-.05-.386-.067-.336.772s-.1,3.256-.1,3.609.017.5-.168.588a3.836,3.836,0,0,1-1.007-.017c-.336-.05-.755-.067-.789.2s.05.352.7.4,1.511.017,1.612-.2a4.661,4.661,0,0,0,.2-1.83C485.242,1400.995,485.394,1398.628,485.142,1398.578Zm1.746-4.146c.1-1.863-.017-5.287.034-6.932s-.923-1.83-1.763-1.846-4.381.067-4.549.1-.017-.3.084-.873a7.8,7.8,0,0,0-.251-4.213c-.705-2.266-3.038-2.535-4.012-.487a7.408,7.408,0,0,0-.2,4.952c.168.6-.017.638-.134.655l-3.357-.118c-1.947-.067-1.964,1.46-1.913,2.2s-.1,2.82-.168,5.036.034,7.973-.034,10.827,4.213,2.048,6.6,2,7.1-.034,8.242.051,1.36-1.041,1.427-2.182S486.787,1396.295,486.888,1394.432Zm-.755,9.467c-.235,1.393-1.024,1.007-1.83,1.041s-3.911.067-5.774.067a55.8,55.8,0,0,1-5.892-.134c-.957-.185-1.008-.856-1.008-2.4s.017-9.1.05-11.079a20.38,20.38,0,0,1,.319-4.331c.2-.369.973-.537,1.729-.47s2.232.017,2.753,0,.457.278.537.554c.151.52.319.638.638.672s.286-.285.05-.856a11.059,11.059,0,0,1-.906-3.223c-.4-2.249.772-3.844,1.46-3.878s1.225.4,1.594,1.41a8.706,8.706,0,0,1,.1,3.525c-.117.739-.99,1.746-.487,2.216s.755-.118.873-.319,1.091-.151,1.83-.1,2.115.1,3.206.168.705,2.165.705,3.944-.168,6.614-.168,7.822S486.367,1402.506,486.132,1403.9Z" transform="translate(-470.621 -1378.794)" fill="#002147"/>
    </g>
  </g>
</svg>
