<svg id="Layer_1" data-name="Layer 1" xmlns="http://www.w3.org/2000/svg" viewBox="0 0 60.2 41.94"><defs><style>.cls-1{fill:#fff;}.cls-2{fill:#f8fcfd;}</style></defs><title>lille_logo</title><g id="logo"><path id="Path_1" data-name="Path 1" class="cls-1" d="M60.06,21.08c-1.28,5.1-4.41,8.2-9.68,9-.57.09-.85.24-.78.88s0,1.35,0,2.19A30.65,30.65,0,0,0,45.06,31c-6.23-2.19-12.67-2.5-19.17-2.1a35.09,35.09,0,0,0-10.53,2.06c-1.53.59-2.9,1.46-4.37,2.16,0-.39,0-.78,0-1.17,0-1.72,0-1.72-1.8-1.86C4,28.74.8,25.44.09,20.49A11,11,0,0,1,9.65,8.14a11.19,11.19,0,0,1,4.74.43c1,.33,1.32.1,1.81-.72A16.12,16.12,0,0,1,44,8.08c.32.56.49.94,1.33.65A11,11,0,0,1,59.49,15.2,11.39,11.39,0,0,1,60,16.93c0,.11.07.22.1.34A13.89,13.89,0,0,1,60.06,21.08Z"/><path id="Path_2" data-name="Path 2" class="cls-2" d="M11,35.77A30.32,30.32,0,0,1,23.9,31.52a46.32,46.32,0,0,1,19.24,1.36,29.14,29.14,0,0,1,5.73,2.42,1.3,1.3,0,0,1,.76,1.32c-.06,1.72,0,3.43,0,5.32A23.66,23.66,0,0,0,42.47,39c-9.34-2-18.62-2.19-27.78,1-1.31.45-2.36,1.41-3.72,1.72Q11,38.77,11,35.77Z"/></g></svg>