<svg id="Layer_1" data-name="Layer 1" xmlns="http://www.w3.org/2000/svg" viewBox="0 0 360.99 290.07"><defs><style>.cls-1,.cls-4{fill:#fff;}.cls-2{fill:#dc332e;}.cls-3,.cls-4{isolation:isolate;}.cls-4{font-size:16px;font-family:ClarendonTextPro-Bold, Clarendon Text Pro;font-weight:700;}.cls-5{letter-spacing:0.03em;}.cls-6{letter-spacing:-0.06em;}.cls-7{letter-spacing:0em;}</style></defs><title>logo</title><g id="Group_3" data-name="Group 3"><g id="zXA4QE"><g id="Group_2" data-name="Group 2"><path id="Path_3" data-name="Path 3" class="cls-1" d="M133.1,26.88c18.3-35.52,67.47-36,86.33-.38,4.74-.67,9.37-1.84,14-1.9,17-.17,31.64,13.72,32.77,30.59C267.43,73.28,255.4,89,238.28,91.51c-2.63.38-3.85,1.3-3.52,4.12a38,38,0,0,1,0,4.53c-38.48-16.75-76.41-17.48-114.92-.25-.11-2-.25-4.66-.42-7.65C107,91.25,97.17,85.77,91,74.49a33.25,33.25,0,0,1-2.77-26C92.63,33.23,109.52,18.68,133.1,26.88Zm36,45.24c.66-.48,1.1-.63,1.17-.88,2.5-9.69,5-19.38,7.33-29.12.23-1-.65-3.09-1.33-3.25a4.23,4.23,0,0,0-3.53,1.27c-3.8,4.47-7.36,9.16-11,13.75-.76,1-1.65,1.8-3.09,3.34-2-5.56-3.49-10.36-5.34-15-.69-1.76-2.11-3.2-3.7-5.54C146.94,48,144.58,58,142.45,68c-.25,1.21.69,2.68,1.08,4H145l6.18-23c1.58,3.84,2.73,7.11,4.25,10.19s3.3,3.36,5.86,1a33.33,33.33,0,0,0,2.57-3l7.89-9.64c-.43,4.34-1.58,8.34-2.42,12.4s-2.76,7.93-.26,12.19Zm21.73,1.35c1.58-2,2.6-3.18,3.43-4.47,2.33-3.64,4.41-7.46,6.94-11,1.44-2,4.7-5.26,5.18-4.93,3,2,1.06,5.11.42,7.79s-1.65,5.29-2.32,8a18.34,18.34,0,0,0,0,3.92c4.43-3.47,8.37-16.32,6.8-20.7s-5.26-5.26-8.33-1.61a58.14,58.14,0,0,0-3.59,4.94c-1.39,2.07-2.7,4.2-4.05,6.3a30.63,30.63,0,0,1,.89-7.69c.55-2.63.59-5-2.64-6.19a6,6,0,0,0-.75,1.38c-1.24,6.5-2.54,13-3.55,19.53-.19,1.21.86,2.61,1.61,4.7ZM185.54,48l-1.62.14c-1.74,7.42-3.52,14.84-5.16,22.28-.11.51.77,1.24,1.19,1.87.65-.6,1.67-1.08,1.89-1.81,1.75-6,3.49-12,4.9-18.08.3-1.3-.76-2.93-1.2-4.4Zm5.62-4.4-.76-1.57-3.31-3.73c-.64.85-2,2.25-1.82,2.45a15.12,15.12,0,0,0,3.6,3.36c.47.31,1.51-.31,2.29-.51Z"/><path id="Path_4" data-name="Path 4" class="cls-1" d="M18.53,169.14c1.79,8.37,3.62,16.73,5.36,25.11.51,2.49,1.43,3.95,4.31,3.35,3.23-.66,2.27,2.37,2.84,3.88s.39,3-1.79,3.48c-5.22,1.1-10.42,2.32-15.61,3.58-2,.47-3-.15-3.15-2.18-.09-1.75-2.32-4.16,1.1-5,2.72-.64,3.35-2,2.71-4.73-2.06-8.7-3.85-17.46-6-26.14-.3-1.21-2.4-3.13-3.05-2.9-3.74,1.34-4.3-1-4.74-3.68-.12-.71-.26-1.41-.51-2.77,5.92-1.4,11.74-2.86,17.6-4.13,9.39-2,9.42-2,13.87,6.69a168.25,168.25,0,0,0,8.82,16c.48-3.6,1-7.2,1.41-10.8.57-4.8,1-9.63,1.69-14.42.15-1,1.12-2.61,1.92-2.76,8.4-1.55,16.84-2.87,25.27-4.23a3.59,3.59,0,0,1,1.2.3c.26,1.24.5,2.53.8,3.8.48,2.08-.21,3.24-2.39,3.41-2.53.2-3.47,1.55-3.06,4.17,1.37,8.72,2.7,17.46,3.89,26.21.35,2.64,1.27,4,4.08,3.62,3.93-.56,2.62,2.8,3.18,4.67.7,2.33-.9,2.44-2.58,2.7-6.45,1-12.88,2.09-19.31,3.2-1.65.29-3.29.58-3.34-1.8,0-1.86-2.24-4.5,1.28-5.34,2.43-.58,3-2,2.59-4.2-1.44-8.7-2.84-17.4-4.84-26.11l-3.57,30.58c0,.12,0,.24,0,.36-.69,7.81-.73,7.66-8.11,9.52-2.77.7-4-.05-5.25-2.54-5.21-10.45-10.63-20.78-16-31.15Z"/><path id="Path_5" data-name="Path 5" class="cls-1" d="M119.69,126.65c0-5.31-.14-11,.12-16.56,0-1,1.55-2.32,2.66-3,10-5.95,20.92-9.06,32.22-10.82C178.31,92.62,201.51,94,224,103c10.93,4.4,10.89,4.48,10.85,16.42,0,2.51,0,5,0,7.38C196.28,110.54,158.2,109.79,119.69,126.65Z"/><path id="Path_6" data-name="Path 6" class="cls-1" d="M190.6,140.25c3.62,0,6.93-.24,10.21,0,9.3.81,18.73,1.1,27.85,3,9.88,2,14.9,9.47,15,19.72a45.06,45.06,0,0,1-.41,8c-2,11.84-9.07,18.67-21.17,19.15-10.17.4-20.38-.43-30.58-.7-2.46-.07-2.11-1.9-2-3.4s-.9-4.23,2-4.06c3.8.22,4.17-1.84,4.21-4.93.08-8.36.35-16.7.68-25.05.11-2.93-.58-4.62-3.87-4.6-.75,0-2-1.39-2.16-2.32C190.14,143.57,190.51,142,190.6,140.25ZM211.5,182c7.14,1.47,10.66-.06,11.9-6.53a86.43,86.43,0,0,0,1.22-19.34c-.17-4.83-3.83-7.37-8.42-7.67-2.29-.14-3.2.59-3.26,3-.13,5.44-.47,10.86-.73,16.29-.22,4.8-.47,9.58-.71,14.28Z"/><path id="Path_7" data-name="Path 7" class="cls-1" d="M152.48,139.52c6.94.59,14,.48,20.79,1.93,10.54,2.26,15.74,9.5,16.13,20.49.28,8.14-.92,15.76-7.44,21.4a24,24,0,0,1-14.43,5.51c-9.34.66-18.71.88-28.06,1.38-2.12.12-2.85-.88-2.7-2.76s-1.42-4.66,1.94-4.75,3.76-1.94,3.6-4.7q-.67-12.69-1.15-25.39c-.1-2.87-.86-4.66-4.13-4.36-3.5.32-2.28-2.55-2.59-4.31-.37-2.12.51-3.09,2.69-3.14,5.1-.14,10.2-.43,15.29-.66Zm5.62,8.41V181.3c7.52,1,11-1.13,11.78-8.07a73.73,73.73,0,0,0,0-17.25c-.86-7.06-4.8-9.34-11.73-8Z"/><path id="Path_8" data-name="Path 8" class="cls-1" d="M345.14,190c-5.62.14-5.59.15-6.92,6.07-.87,3.88-1.81,7.75-2.83,12.06-3.64-.94-7.66-.17-9.7-4.36-16.49,2.09-26-1.84-30.6-12.58S293.76,165.08,302,158c8.8-7.58,21.25-7.42,33,.44l.09-1,10,.85-4.58,20.32a52.22,52.22,0,0,1-6.94-1.65c-.75-.27-1.3-1.71-1.53-2.72-.59-2.56-.51-5.37-1.47-7.75-2.51-6.2-10.64-7.22-14-1.5a40.24,40.24,0,0,0-4.84,26.59,7,7,0,0,0,7.63,5.74,4.45,4.45,0,0,0,3.16-2.21,26.49,26.49,0,0,0,1.51-6.69c.1-.8-.4-2.35-.87-2.46-5.56-1.3-2.63-4.9-2.31-8.47,3.46.73,6.66,1.35,9.84,2.07,4.05.91,8,2.15,12.13,2.77,3.54.53,4.53,2,3.07,5.3A16.8,16.8,0,0,0,345.14,190Z"/><path id="Path_9" data-name="Path 9" class="cls-1" d="M291.78,198.77c-8.79-1.28-17.21-2.52-25.64-3.7-2.42-.34-2-2.11-1.66-3.57s-.46-4,2.5-3.88c1.73,0,4.36,1,3.9-2.3-.33-2.43.48-6-3.88-6a33.84,33.84,0,0,1-4.59-.56c-4.49-.59-6.2.63-6.81,5.2a3.11,3.11,0,0,0,1.38,2.34c.82.53,2,.51,3.43.81-.3,2.3-.58,4.49-.9,7l-20.24-2.27a22.93,22.93,0,0,1,.09-4.83c.2-.89,1.25-2.17,2-2.23,2.83-.21,4.14-2,5.21-4.27,5-10.85,10-21.65,14.93-32.53,1.07-2.37,2.39-3.18,4.94-2.69,3.84.72,7.74,1.13,11.63,1.56,2.05.22,3,1,3.33,3.32,1.58,11.5,3.34,23,5.09,34.44.48,3.09.68,6.43,5,6.79.53,0,1.33,1.56,1.31,2.38A27.37,27.37,0,0,1,291.78,198.77ZM268.64,172c-.73-4.5-1.37-8.46-2-12.42l-.86-.14-4.69,11.64Z"/><path id="Path_10" data-name="Path 10" class="cls-1" d="M101.5,186.16a24,24,0,0,0,.4,2.4c1,3.65-.43,4.91-4,5.1-4.49.25-8.93,1.2-13.42,1.55-1,.08-2.89-1-3-1.72-.18-1.76,0-4.86.83-5.2,3.1-1.24,3.88-3.59,4.48-6.4,2.5-11.57,5.14-23.11,7.52-34.71.5-2.43,1.61-3.15,3.8-3.29,3.9-.24,7.82-.54,11.69-1.09,2.34-.34,3.36.48,4.19,2.67,4.19,11.05,8.59,22,12.82,33.06,1.07,2.8,2.24,4.82,5.77,4.67,3.13-.12,1.67,2.83,2,4.44s-.1,2.73-2.13,2.86c-7.81.5-15.62,1-23.41,1.79-2.83.28-2.43-1.61-2.62-3.16s-1.2-3.7,1.75-4.16c1.4-.22,3.69.37,3.34-2.51-.43-3.63-2.31-5.89-4.93-5.69-2.24.18-4.47.5-6.71.73-2.6.27-4,2.77-3.84,6.48.16,2.85,2.2,1.82,3.69,2Zm4.75-16.92-4.63-11.4-1,.22c-.6,3.9-1.2,7.8-1.85,12.05Z"/><path id="Path_11" data-name="Path 11" class="cls-1" d="M180.23,235.54c4.15,4.08,7.69,7.48,11.13,11,2.59,2.62,3,5.18,1,6.9-2.55,2.19-4.83,1.2-6.87-1l-10.52-11.2c-3.8,4.07-7.11,7.68-10.47,11.23-2.4,2.53-5,2.87-6.81,1s-1.62-4.34.93-6.94c2.93-3,5.94-5.87,9.79-9.67-4.47-4.17-8.68-7.88-12.65-11.85A12.58,12.58,0,0,1,153,211c1.37-2.9,2.43-3.16,4.72-.88q7.65,7.6,15.13,15.37a26,26,0,0,1,2.38,3.5c2.71-2.68,6-3.75,4.08-7.8-.3-.65.42-2.15,1.07-2.87,2.58-2.84,5.27-5.59,8-8.22.62-.58,1.8-.53,2.73-.77-.2,1-.06,2.38-.66,3-2.6,2.81-5.4,5.41-8.3,8.25l7.21,7.54c2.64-2.63,5-5.14,7.53-7.41,1-.88,2.45-1.21,3.7-1.79-.47,1.29-.66,2.82-1.48,3.81-1.82,2.22-4,4.14-6,6.24-1.65,1.76-3.26,3.2-5.88,1.73-.47-.26-1.55.12-2.1.55C183.69,232.41,182.3,233.74,180.23,235.54ZM173.87,231l-9.27-9.34q-4.29-4.34-8.55-8.68l-1.18.7c.44,2.16.22,4.85,1.43,6.37,4.11,5.16,8.73,9.91,13.45,15.14Zm10.3-3.35-.93-.89c-3.57,1.54-22.92,22.08-23.09,25.65Zm5.55,23.56c-1.32-4.23-9.72-12.15-11.23-12Z"/><path id="Path_12" data-name="Path 12" class="cls-1" d="M128.46,234.8c-2.85,0-5.71.12-8.55-.08-.78-.06-1.5-1.07-2.26-1.64.72-.5,1.42-1.43,2.14-1.45q8.89-.16,17.8,0c.7,0,1.38,1,2.07,1.45-.77.56-1.51,1.56-2.31,1.61C134.4,234.91,131.42,234.8,128.46,234.8Z"/><path id="Path_13" data-name="Path 13" class="cls-1" d="M224.29,234.76c-2.95,0-5.91.1-8.85-.08-.66,0-1.27-1-1.9-1.57.57-.5,1.14-1.42,1.72-1.43q9.19-.17,18.4,0c.59,0,1.15.93,1.73,1.43-.63.55-1.23,1.55-1.89,1.59-3.06.17-6.14.07-9.21.07Z"/><path id="Path_14" data-name="Path 14" class="cls-1" d="M198,216.73a6.11,6.11,0,0,1-.72,1.33c-2.14,2.24-4.24,4.5-6.5,6.58-.47.43-1.6.08-2.44.08.13-.75,0-1.74.42-2.22,2-2.21,4.05-4.34,6.21-6.37a3.37,3.37,0,0,1,2.19-.46C197.42,215.67,197.69,216.33,198,216.73Z"/><path id="Path_15" data-name="Path 15" class="cls-1" d="M195.37,213.11A14.47,14.47,0,0,1,194.2,215c-2.15,2.24-4.29,4.5-6.56,6.62-.43.39-1.44.13-2.17.17,0-.75-.29-1.78.09-2.2a86.43,86.43,0,0,1,6.75-6.92C192.75,212.3,194.06,212.9,195.37,213.11Z"/></g></g><circle id="Ellipse_1" data-name="Ellipse 1" class="cls-2" cx="354.99" cy="208" r="6"/><g id="LEG_-_LÆR_-_LAV_MAD" data-name="LEG - LÆR - LAV MAD" class="cls-3"><text class="cls-4" transform="translate(69.11 284)">LEG - LÆR - <tspan class="cls-5" x="108.83" y="0">L</tspan><tspan class="cls-6" x="121.29" y="0">A</tspan><tspan class="cls-7" x="132.88" y="0">V MAD</tspan></text></g></g></svg>