<svg xmlns="http://www.w3.org/2000/svg" width="32.856" height="28.294" viewBox="0 0 32.856 28.294">
  <g id="cooking" transform="translate(-460.991 -1954.077)">
    <g id="cooking-2" data-name="cooking" transform="translate(460.991 1954.077)">
      <path id="Path_47" data-name="Path 47" d="M478.333,1973.973a13.541,13.541,0,0,0,.015-2.733c-.03-1.634.015-3.207.015-3.4s-.215.061-.351.061c-.046,0,.076,1.221.152,2.519S478.227,1973.973,478.333,1973.973Zm.6-1.511a7.881,7.881,0,0,0,.183-2.031c.031-.9.061-2.306.153-2.749s-.15-.478-.321-.4c-.26.122-.061,1.954-.138,3.374S478.822,1972.462,478.929,1972.462Zm5.467-.718c-.294,0-.413.107-.214.672a8.789,8.789,0,0,1,.183,2.626c-.046.839-.2,1.42.061,1.481s.4.412.5-.932a23.986,23.986,0,0,0,.046-2.871C484.961,1972.126,484.838,1971.744,484.4,1971.744Zm5.329,2.382a1.38,1.38,0,0,0,.641-1.756,2.233,2.233,0,0,0-2.015-1.191,2.153,2.153,0,0,0-1.817,1.252c-.153.626.367.947,1.084,1.374A2.338,2.338,0,0,0,489.725,1974.126Zm-1.878-1.909c.336-.244.608.018.931.107.443.122.947.626.718.947s-1.069-.015-1.374-.275S487.51,1972.462,487.847,1972.218Zm1.069,2.626a2.019,2.019,0,0,0-1.863.84c-.26.61.183,1.069.565,1.466a3.053,3.053,0,0,0,2.062.535c.534-.091,1.466-.886,1.176-1.695S489.4,1974.874,488.916,1974.844Zm.962,1.8c-.2.244-.825.091-1.145-.031s-.855-.367-.733-.6a.764.764,0,0,1,.794-.275s.641.29.947.381S490.076,1976.4,489.878,1976.646Zm3.542-.642c-.4-1.252-1.282-3.573-1.4-4.337s-.367-1.4-.886-1.466-2.81-.092-4.856-.122-4.214-.061-4.336-.061a7.869,7.869,0,0,1-.031-1.741c0-.275.4-.367.55-.428s.55-.152,1.252-1.13-.428-1.71-.519-1.771.214-.458.4-1.1-.305-1.221-.733-1.74a5.014,5.014,0,0,0-2.138-1.039c-.214,0,.611-1.221,1.68-2.9s1.893-2.687,2.016-3.054-1.252-1.008-1.588-1.038-.886.916-1.619,2.351-2.443,4.184-2.443,4.184-1.741-.275-2.535-.4a25.219,25.219,0,0,0-4.642.244,14.1,14.1,0,0,0-4.245,1.069c-.916.428-.733,1.588-.58,1.955a6.665,6.665,0,0,1,.244,1.282s-.122.031-.581.214a1.745,1.745,0,0,0-.977,1.772c0,1.069,1.588,1.466,1.588,1.466l.061,1.893a3.912,3.912,0,0,0-1.558.061c-.672.214-1.221,1.711-1.863,2.963a23.378,23.378,0,0,1-2.412,3.359,1.707,1.707,0,0,0-.244,1.252,19.513,19.513,0,0,1,.092,2.474c-.031.671.7.641,2.321.916a13.431,13.431,0,0,0,3.42.183c1.344-.03,1.863.122,5.864.4s9.528.55,13.009.55,6.414.153,7.116.092.763-.581.763-1.039.244-1.435.244-2.046A11.447,11.447,0,0,0,493.42,1976Zm-26.6-8.764c-.244.03-.428-.55-.489-.886s.309-.865.55-.824c.183.031.152.55.152.947S467.065,1967.209,466.82,1967.24Zm14.842-4.81c.6.229.871.4,1.039.962s-.168.733-.58.978-.244.076-.214-.168-.015-.459-.366-.81a5.288,5.288,0,0,0-1.772-.779c-.244-.046.167-.6.351-.6A5.83,5.83,0,0,1,481.662,1962.43Zm-1.328,2.382c.183-.259.236-.473.442-.519.138-.03.169.275.367.428s-.03.229-.259.32a3.676,3.676,0,0,1-.687.2C480.013,1965.27,480.151,1965.072,480.334,1964.812Zm-.733.428c-.152.26-.2.183-.428.168s-.152-.122-.061-.336.4-.641.611-1.008.326-.305.443-.305c.2,0,.275.229.046.58S479.754,1964.98,479.6,1965.239Zm.046-5.131c1.191-1.939,2.688-4.489,2.963-4.978s.778-.077.947.061.061.305,0,.412-.367.6-.764,1.237-2.321,3.527-3.481,5.268-1.4,2.382-1.7,2.84-.015.382.23.382.122-.229.473-.749.7-1.023.824-1.206.275.031.367.092a6.84,6.84,0,0,1-.764,1.572c-.259.459-.244.413-.519.428s-1.268.046-2.168.061a5.314,5.314,0,0,1-1.268-.076c-.229-.031.077-.352.4-.886s.977-1.481,1.084-1.649.337-.068.458-.046c.168.03-.29.535-.748,1.329s-.611,1.084-.473,1.145.229-.244.611-.794.626-.962.886-1.313.381-.367.488-.305-.244.565-.381.748.046.168.168.26-.2.321-.367.718-.305.641-.137.687.336-.152.4-.275a8.059,8.059,0,0,1,.489-.855.22.22,0,0,0,.03-.306c-.061-.061-.183-.122-.091-.229S478.455,1962.048,479.647,1960.109Zm-9.192,4.505c.2.046.473-.55.61-.7s.305-.381.4-.381.061.152-.122.442a6.336,6.336,0,0,0-.443.993c-.061.168-.107.091-.259,0a5.1,5.1,0,0,0-.794-.305c-.321-.107-.061-.275.091-.5s.261-.487.4-.5.061.305-.092.534S470.256,1964.567,470.455,1964.614Zm1.359-.657c.29-.458.428-.67.519-.657.107.015.107.244.015.351a7.148,7.148,0,0,0-.58.916c-.336.581-.2.52-.4.489S471.523,1964.415,471.813,1963.957Zm.886-.077c.4-.5.534-.733.6-.733.107,0,.138.214.046.367s-.29.55-.657,1.161-.4.641-.657.534S472.3,1964.384,472.7,1963.88Zm.809.077a9.151,9.151,0,0,0,.412-.886,2.057,2.057,0,0,1,.626-.015c.183.015-.275.565-.58,1.206s-.428.687-.275.794.138-.046.473-.535.749-1.221.947-1.45.52-.138.718-.122-.152.275-.5.916-.657,1.161-.84,1.481-.214.153-.7.077-.641-.077-.978-.107S473.2,1964.552,473.508,1963.957Zm-4.794-1.909a23.115,23.115,0,0,1,3.542-.794c1.527-.122,2.718-.122,3.787-.122s2.321.061,2.26.244-.305,1.13-.489.916a3.61,3.61,0,0,0-1.741-.428,18.269,18.269,0,0,0-4.245.428,12.233,12.233,0,0,0-3.634,1.4c-.119.178-.489-.489-.489-.763S468.286,1962.109,468.714,1962.048Zm-.977,2.794a14.652,14.652,0,0,0,3.909,1.3,25.6,25.6,0,0,0,5.924.275,27.588,27.588,0,0,0,3.253-.473c.275-.091.336-.122.32-.03s-.122.779.244.794.626-.031.626-.382-.2-.779.091-.794.718.046.84.26.122.5-.29.855-.275.5-.932.61a8.206,8.206,0,0,0-1.4.29c-.4.138-.336.367-.015.473s.657.122.672.244-.015,2.046-.077,2.871-.015,2.169-.824,2.657a9.9,9.9,0,0,1-4.092,1.572,11.975,11.975,0,0,1-3.94,0,10.423,10.423,0,0,1-3.405-1.572c-.58-.413-.916-.367-.962-.962s.031-7.039.031-7.039C467.706,1965.377,467.6,1964.751,467.736,1964.843Zm1.97,10.6c1.344.657,1.771.748,4.444.84a10.382,10.382,0,0,0,4.932-.871,4.069,4.069,0,0,0,2.351-2.016c.138-.367.183-.473.4-.367s.122.23-.015.688a2.739,2.739,0,0,1-.947,1.343,9.08,9.08,0,0,1-3.558,1.5,21.938,21.938,0,0,1-5.284-.077,19.477,19.477,0,0,1-4.84-1.466c-1.023-.5-1.222-1.39-.978-1.848s.56-.668.7-.611c.077.031-.015.871.092,1.359S468.363,1974.783,469.706,1975.44Zm-5.833-1.206c.932-1.344,1.725-2.917,2.016-3.237a.976.976,0,0,1,.977-.183c.2.061.107.259.091.58s-.061.137-.351.259-.388.168-.671.291c-.672.29-.871,1.282-.871,2.03a3.789,3.789,0,0,0,1.3,2.749,31.635,31.635,0,0,0,4.917,1.374c.611.107.962.107.962.168s-.351.077-1.023.061-2.855-.214-5.1-.351-3.71-.519-4.092-.534S462.942,1975.577,463.873,1974.233Zm28.814,5.742a3.227,3.227,0,0,0-.046,1.053c.015.183.122.321-.183.321s-1.466-.031-2.4,0-3.649.137-4.459.137-1.633-.137-4.077-.244-5.192-.137-8.841-.4-5.6-.275-6.291-.275-1.084-.031-1.634-.046a12.992,12.992,0,0,1-1.924-.336c-.221-.06-.55.077-.6-.32s-.336-1.374.015-1.329,2.26.168,5.436.412,6.184.183,8.322.367,5.818.214,7.711.275a39.594,39.594,0,0,1,4.78.046,8.709,8.709,0,0,0,2.611.168c.687-.046,1.221-.107,1.282-.107S492.794,1979.578,492.687,1979.975Zm-.565-1.313a19.826,19.826,0,0,1-3.619.061c-2.23-.092-3.589-.168-5.207-.168s-3.3.061-4.184.076-1.527-.076-1.344-.183,1.237-.168,1.985-.381,2.321-.824,2.809-1.711a5.262,5.262,0,0,0,.428-2.87c-.107-.534-.275-1.39-1.359-1.405-.091,0,.015-1.221.2-1.221a22.882,22.882,0,0,0,2.672.152c1.3-.03,3.5-.015,4.4-.015s1.909-.076,2.138.626.916,2.855,1.359,4.2a12.058,12.058,0,0,1,.58,2.551C492.977,1978.509,492.7,1978.585,492.122,1978.662Z" transform="translate(-460.991 -1954.077)" fill="#002147"/>
    </g>
  </g>
</svg>
