<svg xmlns="http://www.w3.org/2000/svg" width="38.202" height="25.765" viewBox="0 0 38.202 25.765">
  <g id="fish_2" data-name="fish 2" transform="translate(-181.51 -1048.745)">
    <g id="fish_2-2" data-name="fish 2" transform="translate(181.51 1048.745)">
      <path id="Path_46" data-name="Path 46" d="M189.258,1060.416a1.415,1.415,0,1,0,.728,2.452.976.976,0,0,0,.171-1.495C189.92,1061.074,189.835,1060.353,189.258,1060.416Zm28.784-1.911a7.8,7.8,0,0,1-1.019-5.553c.369-2.753.024-3.362-.537-3.892s-1.776-.307-2.6.064-1.591,1.681-2.3,2.894a10.181,10.181,0,0,1-3.818,3.5c-1.479.71-2.8.041-3.974-.56a20.811,20.811,0,0,0-3.234-1.148s-.118-.324.408-1.3a1.869,1.869,0,0,0-1.308-2.583c-1.2-.345-2.722.257-4.093.927a29.179,29.179,0,0,0-4.269,2.461c-1.355.984-3.117,2.8-3.784,3.19s-1.3,2.335-1.3,2.335a16.14,16.14,0,0,0-4.659,6.765c-.357,1.305,1.392,1.4,2.716,1.141a3.888,3.888,0,0,1,2.351.269c.106.427-1.709,1.357-2.511,1.576a2.231,2.231,0,0,0-1.022,3.041c.733,1.275,3.489,1.177,5.415,1.087a42.36,42.36,0,0,0,5.6-.962s.888,1.293,3.769,2.348,4.165-.194,4.7-.806-1.625-4.328-1.625-4.328c.705-.281,1.913-1.334,3.956-2.445s3.269-2.317,4.662-2.726a7.024,7.024,0,0,1,5.1,1.155c1.643,1.017,3.056,1.335,4.494-.364S218.889,1060.155,218.042,1058.505Zm-24.77-5.316c2.621-1.524,4.669-2.454,5.627-2.344s2.069.586.288,2.906a16.012,16.012,0,0,0-5.419,1.2c-3.012,1.208-4.7,2.023-5.232,2.273A20.87,20.87,0,0,1,193.272,1053.189Zm1.121,17.291a30.039,30.039,0,0,1-6.769,1.125c-2.488.025-5.14-.552-3.287-1.814s3.64-1.6,3.483-2.94-1.755-1.289-3.008-1.2-2.318.239-2.021-.659a13.78,13.78,0,0,1,2.875-4.407c1.115-.92,2.542-2.193,3.1-2.285a4.015,4.015,0,0,1,2.765.939c1.134.945,3.035,2.989,3.175,5.49S194.8,1070.293,194.393,1070.48Zm6.713,1.392c.334.466.512.952.145,1.1a4.666,4.666,0,0,1-3.539-.29c-1.692-.815-2.343-1.24-1.894-1.421s3.452-1.661,3.946-1.566C199.763,1069.7,200.77,1071.406,201.105,1071.871Zm17.158-8.086c-.757.845-1.081.963-2.638.318s-2.874-1.689-4.6-1.576-1.9-.062-6.055,2.683-5.18,3.521-9.224,4.92a13.872,13.872,0,0,0-.408-7.269c-1.306-3.838-3.109-4.705-4.5-5.486a23.03,23.03,0,0,1,5.6-2.114c2.374-.388,3.4-.852,6.2.4s4.571,1.107,5.638.609a9.938,9.938,0,0,0,3.774-3.449c.961-1.6,2.012-2.642,2.652-2.8s1.61.186,1.423,1.134a10.821,10.821,0,0,0,.671,7.338C218.464,1061.712,219.022,1062.94,218.264,1063.786Zm-21.282-7.065a1.442,1.442,0,0,0-1.4.344,1,1,0,0,0-.01,1.435c.5.406.692.74,1.508.057S198.165,1056.9,196.982,1056.721Zm1.542,3.477c-.212-.168-1.018.078-1.37.775a1.055,1.055,0,0,0,.54,1.382,1.233,1.233,0,0,0,1.392-.617C199.347,1061.148,199.093,1060.652,198.524,1060.2Zm.966,3.761c-.455.321-1.286.706-.827,1.109s.54.373,1.325-.042,1.3-.86,1.15-1.227S200.293,1063.391,199.49,1063.959Zm2.229-6.229c-.591.094-1.835.76-1.118,1.619a1.359,1.359,0,0,0,2.206.059C203.271,1058.764,203.421,1057.461,201.72,1057.731Zm1.7,3.457a.6.6,0,0,0-.617.977c.483.522.667.621.905.57S204.746,1061.806,203.42,1061.188Zm3.65-2.027c-.477-.024-1.433.3-1.154.916s.692.739.968.693a1.873,1.873,0,0,0,.846-.6C207.952,1059.922,208.266,1059.22,207.069,1059.161Zm5.553-2.042c.363-.114.609-1.25-.008-1.282-.311-.016-.61.241-.625.705S212.26,1057.233,212.623,1057.119Zm-.3,1.908c-.153-.043-1.164.332-.663.7s.727.433.974.306S213.492,1059.355,212.326,1059.027Zm2.874-.68c-.382-.185-1,.273-.812.645s.36.585.713.548A.635.635,0,0,0,215.2,1058.347Z" transform="translate(-181.51 -1048.745)" fill="#002147"/>
    </g>
  </g>
</svg>
