<svg xmlns="http://www.w3.org/2000/svg" width="39.133" height="23.207" viewBox="0 0 39.133 23.207">
  <g id="baked_chicken" data-name="baked chicken" transform="translate(-271.315 -1846.221)">
    <g id="baked_chicken-2" data-name="baked chicken" transform="translate(271.315 1846.221)">
      <path id="Path_48" data-name="Path 48" d="M305.811,1852.674c.949.082,2.023.826,3.839-.66s0-2.931-.248-3.054-.207-.619.082-.99.66-.866-.7-1.527-3.054.577-3.054.577c-.5-.866-1.94-1.279-3.178.083s-.207,3.343.33,3.8-1.238,1.774-1.485,1.94-1.651-.371-3.756-.165a6.7,6.7,0,0,0-3.3,1.156,9.184,9.184,0,0,0-5.365-1.734,17.735,17.735,0,0,0-8.172,1.032c-3.219,1.2-5.9,3.509-6.6,7.017a4.741,4.741,0,0,0,2.188,5.16c.33.33,0,0-1.032-.083s-2.064-.124-3.3-.124-.537,1.775-.537,2.6a5.67,5.67,0,0,1,.248,1.4c0,.619,8.544.206,13.992,0s19.481-.413,22.122-.372,1.981-2.353,1.94-3.425-1.4-.867-2.6-.785-3.1-.082-3.343-.082-.331-.206-.413-1.2a2.411,2.411,0,0,0-1.2-1.733,19.377,19.377,0,0,1,2.229-2.889c1.321-1.568-.082-3.8-.5-4s0-.413.248-.743S304.861,1852.592,305.811,1852.674Zm-29.483,5.049a13.127,13.127,0,0,1,7.76-4.045,16.819,16.819,0,0,1,7.374.275c1.018.441,1.623.413.99.88s-3.164,3.11-3.577,4.54-.88,3.439-.275,4.155,1.073,1.073.606,1.211-5.008.248-5.008.248c-1.4.055-5.833.165-6.824-.44S274.071,1860.227,276.328,1857.723Zm31.808,8.007c.66-.055.385.991.385,1.458s-.55.358-1.954.331a16.552,16.552,0,0,0-4.265.082,20.421,20.421,0,0,1-5.173.247,55.582,55.582,0,0,0-6.988.633c-1.541.193-3.192-.358-4.348-.44a26.481,26.481,0,0,0-4.182.055,22.3,22.3,0,0,1-4.4.165,38.008,38.008,0,0,0-4.32-.028c-.55.028-.633-.936-.577-1.624s.5-.578,1.183-.522,1.709.212,2.752.3c.633.055,2.063-.165,3.164-.192s2.283.082,3.6.082a44.444,44.444,0,0,0,4.76-.275c2.229-.22,5.338-.055,6.879-.055s4.623-.275,7.347-.33S307.475,1865.785,308.135,1865.73Zm-5.668-2.173c.5.963-.358.936-.963.936s-2.752.082-3.082.138,1.183-1.266,1.679-1.624a1.783,1.783,0,0,0,.743-.605C301.285,1861.878,301.972,1862.593,302.468,1863.557Zm.385-4.623a46.584,46.584,0,0,1-4.9,4.292c-.853.606-1.238.77-1.348,1.073s-.082.413-.523.5-2.421.083-3.137.083-1.073.358-.715,0,.88-.936.743-1.046-1.844,1.046-2.091.936-.908-.468-.138-1.1,1.788-1.211,1.678-1.4-2.311,1.485-2.421,1.266a.983.983,0,0,1,0-1.1c.33-.44,2.476-2.339,2.311-2.531s-1.348.715-1.9,1.293-.908,1.156-.908.66a2.15,2.15,0,0,1,.605-1.514c.467-.523,1.046-1.046.936-1.183s-.385-.027-.385-.027c-.221.22-.413.577-.606.523s.055-.77,1.019-2.009a10.017,10.017,0,0,1,4.458-3.109,16.252,16.252,0,0,1,5.5-.578,3.111,3.111,0,0,1,2.477,2.174C303.678,1856.98,304.256,1857.448,302.853,1858.934Zm.165-5.283c-.208-.075-.55-.3-.22-.633s1.844-1.788,1.541-2.173-1.4-1.046-1.183-2.064.77-1.651,1.293-1.4.028.881.331,1.238.66.275,1.073-.082,1.183-1.183,1.871-1.1,1.073.688.358,1.073-1.129,1.183-.5,1.238,1.019-.027,1.431.3.577,1.155-.413,1.458-2.256-.165-2.779.028a4.678,4.678,0,0,0-1.568,1.266C303.926,1853.211,303.32,1853.761,303.018,1853.651Zm-8.2,4.431a.569.569,0,0,0,.028-1.129.77.77,0,0,0-.936.77C293.938,1858.191,294.268,1858.136,294.818,1858.081Zm3.935-.028c-.385-.03-.578,0-.88.55s.33.605.687.687.66-.358.66-.577S299.111,1858.081,298.753,1858.054Zm-3.522.99c-.226-.064-.743.083-.523.578s.467.66.77.441S295.616,1859.154,295.231,1859.044Zm2.256,1.844a.569.569,0,0,0-.193.991c.413.275.88.3,1.046-.221S298.093,1860.722,297.487,1860.887Zm-3.3.523c-.467.031-1.156.8-.77,1.1s.715.055.99-.22S294.6,1861.383,294.185,1861.41Zm-5.7-5.5c.221-.138.248-.88-.275-.963-.381-.061-1.238.358-.88.88S288.27,1856.045,288.489,1855.907Zm-4.4.881c.523-.386.5-1.046-.165-1.073-.221-.01-1.046.523-.825.908S283.564,1857.173,284.087,1856.788Zm-2.971.55c.3-.248.3-.99-.5-1.238-.51-.158-1.32.468-.825,1.128A.816.816,0,0,0,281.116,1857.338Zm5.118,1.293c.33-.165.605-.8-.193-.935-.357-.062-.99.33-.77.8S285.9,1858.8,286.234,1858.631Zm-4.953,1.321c.275.606.606.716,1.019.331s.44-.826.027-1.156C281.96,1858.833,281.005,1859.347,281.28,1859.952Zm-3.109.688c.605.413.77.165.963-.33s.22-.633-.221-.8C278.575,1859.385,277.566,1860.227,278.171,1860.64Zm2.422,2.586c.22-.192.082-.825-.523-.853a.518.518,0,0,0-.358.853A.611.611,0,0,0,280.593,1863.226Zm3.357.468c.578.192,1.046.028,1.1-.275a.65.65,0,0,0-.633-.77C284,1862.649,283.372,1863.5,283.95,1863.694Zm2.284-1.981c.22-.248-.221-.551-.386-.633-.541-.271-.88.385-.412.77S286.013,1861.961,286.234,1861.713Z" transform="translate(-271.315 -1846.221)" fill="#f7dd7b"/>
    </g>
  </g>
</svg>
