<svg xmlns="http://www.w3.org/2000/svg" width="32.369" height="26.996" viewBox="0 0 32.369 26.996">
  <g id="steak" transform="translate(-369.018 -930.488)">
    <g id="steak-2" data-name="steak" transform="translate(369.018 930.488)">
      <path id="Path_45" data-name="Path 45" d="M400.6,937.283c-1.029-3.784-5.224-6.046-7.979-6.252s-4.771.864-7.362,1.769-3.249-.082-5.305-1.44-4.073-.8-5.429-.494c-3.948.9-5.511,5.224-5.511,7.485s1.192,8.308,3.084,10.447,6.581,1.481,7.774,1.727a8.628,8.628,0,0,1,4.36,3.537,7.022,7.022,0,0,0,6.786,3.414c3.784-.124,6.91-2.756,8.884-6.786S401.632,941.067,400.6,937.283Zm-2.016,13.367c-.534,1.316-.7,1.563-2.591,3.742s-3.743,2.016-5.84,1.892-2.838-1.069-4.606-2.961-2.632-3.126-4.524-3.66-4.483-.329-6.7-.74-2.673-3.619-2.591-4.237,1.069.411,1.933,1.152a5.95,5.95,0,0,0,3.414,1.275,20.109,20.109,0,0,1,5.593.658c1.85.576,2.879,2.3,4.4,4.113s4.4,1.11,7.4.329,4.442-3.5,4.853-3.825S399.124,949.334,398.589,950.65Zm-.041-3.661c-1.563,2.509-2.591,3.784-5.306,4.442s-4.2,1.029-5.716-.576-3.208-4.771-6.457-4.729-6.539.041-8.6-2.262-3-6.375-1.645-8.472,4.729-4.483,7.279-3.373c1.276.556,3.249,1.769,5.1,1.933a10.565,10.565,0,0,0,5.306-1.029,6.866,6.866,0,0,1,4.729-.37c1.481.37,5.306,1.85,6.211,5.552S400.111,944.481,398.548,946.99Zm-19.125-12.75c-1.275,0-2.591.161-3.413.124-2.756-.124-3.578,1.933-3.373,3.866s2.426,3.249,4.318,3.66a6.442,6.442,0,0,0,5.47-.781c1.974-1.275,1.645-2.756,1.152-4.771S380.7,934.24,379.423,934.24Zm3.5,3.825a3.609,3.609,0,0,1-3.661,2.838c-2.262.041-4.935-1.234-5.47-2.426s1.11-3.908,3.373-3c1,.4,1.81-.123,3.043,0S383.084,936.872,382.919,938.065Zm-4.771-1.81c-2.056-.535-2.674.289-2.961.863-.329.658.329,1.892,1.85,2.468s2.385-.781,2.714-1.152S380.2,936.79,378.148,936.255Zm.576,2.1a1.246,1.246,0,0,1-1.769.247c-.863-.494-1.6-1.521-.123-1.81.741-.144,1.275.535,1.727.535S379.176,937.9,378.724,938.353Z" transform="translate(-369.018 -930.488)" fill="#dc3130"/>
    </g>
  </g>
</svg>
