<svg xmlns="http://www.w3.org/2000/svg" width="38.12" height="21.376" viewBox="0 0 38.12 21.376">
  <g id="eggplant" transform="translate(-83.051 -820.985)">
    <g id="eggplant-2" data-name="eggplant" transform="translate(83.051 820.985)">
      <path id="Path_49" data-name="Path 49" d="M121.013,822.863c-.1-1.005-.43-2.154-.909-1.819s-.862,1.771-1.436,2.154a1.794,1.794,0,0,1-2.346-.239,7.087,7.087,0,0,0-5.026-1.819c-2.776-.048-4.93,1.58-5.314,2.824,0,0-2.441.814-3.686.335s-6.893-2.058-10.53-1.005-8.568,5.169-8.712,10a8.6,8.6,0,0,0,8.329,9,23.857,23.857,0,0,0,12.637-2.393,63.234,63.234,0,0,0,8.52-4.739c1.005-.623,1.532-.958,1.532-.958a2.764,2.764,0,0,0,2.968-1.483,10.138,10.138,0,0,0,1.34-4.834c-.047-1.2-.191-1.484.24-1.628a4.809,4.809,0,0,0,2.2-1.2C121.4,824.347,121.109,823.869,121.013,822.863Zm-6.941,9.334c-.814,1.292-2.01,1.771-7.132,5.026S96.6,840.814,93.873,841.2s-7.42-.766-8.856-4.021a8.954,8.954,0,0,1,1.1-8.807c1.58-2.154,6.414-4.26,8.281-4.547s5.887,1.149,7.9,1.627a6.807,6.807,0,0,0,4.26-.814c.335.814.766.527,1.58.048s2.154-1.2,3.3-.527-.143,2.2-1.484,3.638-.766,2.441.622,2.585,3.351-1.2,4.116-1.149S114.886,830.9,114.073,832.2Zm5.134-7.3c-.611.394-1.616.574-1.867.969s-.035,2.872-.18,4.416-1.831,2.764-2.19,2.549.789-1.292,1.293-2.836-1.233-2.106-2.094-1.915-3.064,1.388-3.495,1.2,1.389-2.25,2.011-3.255.766-1.915-.766-2.728-3.494.239-3.973.143.1-.375.335-.479a6.622,6.622,0,0,1,3.279-.754,6.732,6.732,0,0,1,4.452,1.831,2.326,2.326,0,0,0,2.872.143c.538-.323,1.005-1.185,1.041-1.077a5.559,5.559,0,0,1,.18.79C120.176,824.323,119.817,824.5,119.207,824.9Zm-24.113,1.484c-1.4.035-4.631,1.221-5.851,2.908s-1.329,4.236-.862,4.882.753.826,1.113.682-.43-1.364-.071-2.8a6.941,6.941,0,0,1,3.375-4.164c1.508-.575,3.733.107,3.805-.79C96.631,826.74,96.494,826.345,95.094,826.381Z" transform="translate(-83.051 -820.985)" fill="#00470b"/>
    </g>
  </g>
</svg>
