<svg xmlns="http://www.w3.org/2000/svg" width="27.493" height="26.525" viewBox="0 0 27.493 26.525">
  <g id="shopping_basket" data-name="shopping basket" transform="translate(-182.536 -1954.739)">
    <g id="shopping_basket-2" data-name="shopping basket" transform="translate(182.536 1954.739)">
      <path id="Path_35" data-name="Path 35" d="M209.97,1957.571a9.409,9.409,0,0,0-1.218-1.58c-.264-.188-.766.408-1.089.694a19.98,19.98,0,0,1-1.425,1.446c-.218.083.658-1.874.732-2.257s-1.032-.892-1.852-1.078-.864.1-1.156.567a28.223,28.223,0,0,0-1.076,2.964c-1.015.032-1.743.944-2.477,1.81s-2.443,3.659-2.443,3.659-.278-3.292-.28-4.127-.686-1.043-1.243-1.042-2.661.171-3.247.271-.494.918-.494.918a5.521,5.521,0,0,0-2.874-.813,6.412,6.412,0,0,0-3.981,1.415,6,6,0,0,0-1.983,3.906,3.691,3.691,0,0,0,1.2,2.719c-3.4.436-2.461,2.178-2.249,2.745s1.186,2.49,1.522,3.383a1.249,1.249,0,0,0,1.464.7,22.949,22.949,0,0,1,1.13,4.076c.418,1.784.742,2.61,1.518,3.082s3.214.083,6.289.027,5.978.381,7.574.089,1.962-1.978,2.326-3.8a31.134,31.134,0,0,1,.916-4.05,7.788,7.788,0,0,0,.83-.024c.334-.08.7-.373.956-1.066a28.1,28.1,0,0,0,.088-4.56,1.629,1.629,0,0,0-1.579-1.658c-.327-.014.57-.746,1.485-1.921a1.625,1.625,0,0,0,.134-2.086.764.764,0,0,1,.232-.271c.147-.095,1.208-1.085,1.722-1.474s.081-.755-.16-.947.03-.376.419-.813S210.076,1957.785,209.97,1957.571Zm-16.358,2.416,3.123-.18.324,8.78-2.759.142Zm-7.5,1.731a4.339,4.339,0,0,1,3.819-1.55,4.113,4.113,0,0,1,2.784,1.385,3.991,3.991,0,0,1,.183,1.36c-.033.214-.06.335-.2.2s-.226-.1-.376.11a6.088,6.088,0,0,1-.822.765.594.594,0,0,1-.627.129.322.322,0,0,1-.2-.5c.12-.252.437-1.4.534-1.644s.187-.542.074-.662a.48.48,0,0,0-.526-.1,6.952,6.952,0,0,0-.594,1.7,8.906,8.906,0,0,1-.426,1.324c-.094.132-.143-.023-.4-.443s-.992-1.34-1.214-1.7-.482-.382-.707-.2-.022.421.11.653.766,1.239,1.034,1.588.517.586.37.68-.674-.281-1.177-.381-1.242-.347-1.764-.421-.425.095-.511.411.418.417,1.061.516a10.845,10.845,0,0,1,1.749.469c.2.083.309.18.282.3s-.77.246-.984.352.013.624.013.624l-1.661.188a1.5,1.5,0,0,0-.122-.722,3.455,3.455,0,0,1-.841-1.133C184.555,1964.16,185.386,1962.489,186.114,1961.717Zm5.66,3.032c-.1-.158.416-.418.611-.637s.477-.475.514-.249.294,2.153.114,2.183-.68.092-.86.122-.711-.088-.546-.209A1.394,1.394,0,0,0,191.774,1964.75Zm-.9,1.009c-.108.32.088.379-.453.471a.584.584,0,0,1-.735-.641.854.854,0,0,1,.623-.708,1.754,1.754,0,0,1,.553.115C191.234,1965.119,190.986,1965.439,190.877,1965.759Zm13.287,9.6c-.272,1.275-.73,2.952-.894,3.63a1.226,1.226,0,0,1-.987,1.024,7.824,7.824,0,0,1-2.18.136c-1-.039-3.428-.116-5.191-.12s-4.676.187-5.555.2-1.285-1.29-1.551-2.451a15.818,15.818,0,0,0-1.21-3.321c-.287-.462-.034-.607.172-.631.477-.058,3.585-.606,6.046-1a16.458,16.458,0,0,1,4.372-.205,33.765,33.765,0,0,0,3.481.154,11.329,11.329,0,0,1,3.576.3C204.72,1973.3,204.436,1974.088,204.165,1975.363Zm2.3-7.252a24.545,24.545,0,0,1,.081,2.676c-.07.684-.132,1.552-1.034,1.427a23.511,23.511,0,0,0-3.64-.683c-1.131.029-1.62.157-3.732.144a26.972,26.972,0,0,0-6.138.318c-2.54.475-4.648.762-5.441.873s-1.285.217-1.485-.282-.677-1.671-.677-1.671c-.2-.5-1.166-2.238-.663-2.416a31.086,31.086,0,0,1,3.813-.76c1.807-.282,4.416-.491,4.912-.575a1.409,1.409,0,0,1,.7,0,8.29,8.29,0,0,0,.359,2.258,1.812,1.812,0,0,0,1.482.4c.76-.036,1.9-.019,2.146-.061a1.061,1.061,0,0,0,.851-1,7.516,7.516,0,0,1-.015-1.876c.135-.023,2.079.229,3.523.263s2.552.01,3.454,0S206.436,1967.4,206.464,1968.111Zm.2-5.113c-.071.406-.442.677-.982,1.325a13.9,13.9,0,0,1-1.368,1.646,21.981,21.981,0,0,1-3.552-.026c-1.835-.154-2.613-.231-2.813-.452,0,0-.088-.518.089-.711s2.062-2.482,2.669-3.28,1.81-2.045,2.036-1.944,1.97,1.36,2.723,1.975S206.737,1962.592,206.667,1963Zm2.072-4.617c-.255.275-.99,1-.839,1.208s.493.311.343.522-.491.385-.788.69-.45.632-.781.318-1.7-1.29-2.154-1.63c-.3-.226-1-.434-.885-.708s.523-1.433.766-2.194.351-1.079.6-1a4.653,4.653,0,0,1,.839.438c.105.075.309.18.129.488a6.173,6.173,0,0,0-.594,1.84.851.851,0,0,0,.46.525c.256.142.546.348.689.231s.592-.75,1.117-1.348.633-.919.9-.686a2.657,2.657,0,0,1,.561.578C209.2,1957.817,208.994,1958.106,208.739,1958.382Zm-8.185,5.627c-.388-.237-.581-.107-.654.11-.123.369.475.615.836.833s.727.735,1.065.678.206-.568-.021-.808A7.765,7.765,0,0,0,200.553,1964.008ZM202,1962.14a.419.419,0,0,0-.609.1c-.191.38.446.852.947,1.208s.358.473.483.661a.474.474,0,0,0,.725-.1.761.761,0,0,0-.31-.875C202.911,1962.868,202.192,1962.317,202,1962.14Zm-8.459,14.438a2.181,2.181,0,0,0-.785.156c-.421.117-1.356.067-1.284.635a3.38,3.38,0,0,0,.277,1.228c.158.251.373.424,1.075.189s1.624,0,1.57-.59S194.18,1976.517,193.54,1976.578Zm-.365,1.406a6.146,6.146,0,0,0-.654.111c-.428.072-.294-.229-.354-.45s.435-.182.654-.25c.661-.2.752.058.79.284S193.45,1977.962,193.175,1977.985Zm7.883-4.81a4.677,4.677,0,0,0-1.161.127c-.2.052-.888-.036-.909.664s-.057,1.308.382,1.3,1.466.03,1.808,0,.564-.235.543-.764S201.75,1973.151,201.059,1973.175Zm-.155,1.278c-.226.038-.462.008-.921.039s-.271-.232-.275-.394.276-.029.515-.11c.68-.23.816.024.835.137S201.129,1974.415,200.9,1974.453Zm-1.624,1.642c-.62.035-.917.062-.917.062-.4-.025-1.177-.1-1.311.338a5.677,5.677,0,0,0-.1,1.316.76.76,0,0,0,.873.64,3.357,3.357,0,0,1,1.068.005c.379.052.842.043.941-.878S199.9,1976.061,199.28,1976.1Zm-.145,1.068c-.026.259-.025.4-.352.384s-.553.024-.883-.013-.136-.255-.155-.508.373-.105.628-.129C198.988,1976.841,199.161,1976.9,199.135,1977.164Zm-7.8-1.7c-.077-.729.046-1.376-.417-1.507a2.5,2.5,0,0,0-1.022-.013c-.428.073-1.18.014-1.149.612a7.28,7.28,0,0,0,.327,1.661c.068.127.117.281.82.186s.973-.141,1.131-.168S191.412,1976.2,191.336,1975.467Zm-.665-.1c0,.394-.319.309-.777.34s-.347-.405-.378-.725.312-.214.582-.26a1.2,1.2,0,0,0,.346-.012C190.646,1974.679,190.673,1974.976,190.67,1975.371Zm5.2-2.015c-.338.057-1.567.057-1.766.113a1.4,1.4,0,0,0-.676.393c-.154.188.062.917.055,1.15s.085.635.757.638a14.411,14.411,0,0,0,1.7-.1c.2-.035.357-.362.337-.892S196.21,1973.3,195.871,1973.356Zm-.242,1.038c.03.181.042.387-.2.452a7.566,7.566,0,0,1-.989.051c-.481.035-.357-.334-.35-.567s.52-.129.691-.163C195.61,1974,195.6,1974.213,195.63,1974.394Z" transform="translate(-182.536 -1954.739)" fill="#002147"/>
    </g>
  </g>
</svg>
